<svg width="623" height="623" viewBox="0 0 623 623" fill="none" xmlns="http://www.w3.org/2000/svg">
<g filter="url(#filter0_dd_87_3)">
<path d="M9 200C9 92.3045 96.3045 5 204 5H419C526.696 5 614 92.3045 614 200V415C614 522.696 526.696 610 419 610H204C96.3045 610 9 522.696 9 415V200Z" fill="#011D3A" stroke="#EEEEEE" stroke-width="10"/>
<path fill-rule="evenodd" clip-rule="evenodd" d="M249.64 517.801C316.183 351.23 196.826 503.787 196.826 486.5L258.683 334.5L190.683 169.805C190.683 152.518 229.515 189.5 258.683 189.5C287.851 189.5 296.31 152.518 296.31 169.805L388.417 351.23C540.683 307 485.683 321 249.64 517.801Z" fill="url(#paint0_linear_87_3)" stroke="#F1F3F5" stroke-width="10" stroke-linecap="round"/>
</g>
<rect x="239" y="213" width="13" height="39" fill="black"/>
<rect x="239" y="213" width="13" height="39" fill="black"/>
<rect x="239" y="213" width="13" height="39" fill="black"/>
<rect x="239" y="213" width="13" height="39" fill="black"/>
<rect x="239" y="213" width="13" height="39" fill="black"/>
<rect x="277" y="213" width="13" height="39" fill="#011D3A"/>
<path d="M246.5 300.5C246.5 320.935 244.851 337.5 238.5 337.5C232.149 337.5 227 320.935 227 300.5C227 280.066 256.649 261 263 261C269.351 261 246.5 280.066 246.5 300.5Z" fill="white"/>
<defs>
<filter id="filter0_dd_87_3" x="0" y="0" width="623" height="623" filterUnits="userSpaceOnUse" color-interpolation-filters="sRGB">
<feFlood flood-opacity="0" result="BackgroundImageFix"/>
<feColorMatrix in="SourceAlpha" type="matrix" values="0 0 0 0 0 0 0 0 0 0 0 0 0 0 0 0 0 0 127 0" result="hardAlpha"/>
<feOffset dy="4"/>
<feGaussianBlur stdDeviation="2"/>
<feComposite in2="hardAlpha" operator="out"/>
<feColorMatrix type="matrix" values="0 0 0 0 0 0 0 0 0 0 0 0 0 0 0 0 0 0 0.25 0"/>
<feBlend mode="normal" in2="BackgroundImageFix" result="effect1_dropShadow_87_3"/>
<feColorMatrix in="SourceAlpha" type="matrix" values="0 0 0 0 0 0 0 0 0 0 0 0 0 0 0 0 0 0 127 0" result="hardAlpha"/>
<feOffset dy="4"/>
<feGaussianBlur stdDeviation="2"/>
<feComposite in2="hardAlpha" operator="out"/>
<feColorMatrix type="matrix" values="0 0 0 0 0 0 0 0 0 0 0 0 0 0 0 0 0 0 0.25 0"/>
<feBlend mode="normal" in2="effect1_dropShadow_87_3" result="effect2_dropShadow_87_3"/>
<feBlend mode="normal" in="SourceGraphic" in2="effect2_dropShadow_87_3" result="shape"/>
</filter>
<linearGradient id="paint0_linear_87_3" x1="205.627" y1="138.504" x2="205.627" y2="533.13" gradientUnits="userSpaceOnUse">
<stop stop-color="#E1EDF5" stop-opacity="0.29"/>
<stop offset="1" stop-color="#005999"/>
</linearGradient>
</defs>
</svg>
